<svg xmlns="http://www.w3.org/2000/svg" viewBox="0 0 1024 830">
<rect width="1024" height="830" fill="#FAF7F2"/>
<path d="M512 270 L597 215 L542 300 L597 385 L512 330 L427 385 L482 300 L427 215 Z" fill="#1A1030"/>
<path d="M597 215 L542 300 L512 300 Z" fill="#FFFFFF" opacity="0.22"/>
<path d="M597 385 L512 330 L512 300 Z" fill="#FFFFFF" opacity="0.22"/>
<path d="M427 385 L482 300 L512 300 Z" fill="#FFFFFF" opacity="0.22"/>
<path d="M427 215 L512 270 L512 300 Z" fill="#FFFFFF" opacity="0.22"/>
<circle cx="512" cy="300" r="150" fill="none" stroke="#1A1030" stroke-width="7" opacity="0.8"/>
<circle cx="512" cy="300" r="134" fill="none" stroke="#1A1030" stroke-width="3" opacity="0.45"/>
<path d="M512 20 L539 273 L692 300 L539 327 L512 610 L485 327 L332 300 L485 273 Z" fill="#1A1030"/>
<path d="M512 20 L539 273 L512 300 Z" fill="#FFFFFF" opacity="0.22"/>
<path d="M692 300 L539 327 L512 300 Z" fill="#FFFFFF" opacity="0.22"/>
<path d="M512 610 L485 327 L512 300 Z" fill="#FFFFFF" opacity="0.22"/>
<path d="M332 300 L485 273 L512 300 Z" fill="#FFFFFF" opacity="0.22"/>
<line x1="512" y1="300" x2="512" y2="20" stroke="#FAF7F2" stroke-width="3"/>
<line x1="512" y1="300" x2="692" y2="300" stroke="#FAF7F2" stroke-width="3"/>
<line x1="512" y1="300" x2="512" y2="610" stroke="#FAF7F2" stroke-width="3"/>
<line x1="512" y1="300" x2="332" y2="300" stroke="#FAF7F2" stroke-width="3"/>
<line x1="512" y1="300" x2="597" y2="215" stroke="#FAF7F2" stroke-width="3"/>
<line x1="512" y1="300" x2="597" y2="385" stroke="#FAF7F2" stroke-width="3"/>
<line x1="512" y1="300" x2="427" y2="385" stroke="#FAF7F2" stroke-width="3"/>
<line x1="512" y1="300" x2="427" y2="215" stroke="#FAF7F2" stroke-width="3"/>
<rect x="180" y="440" width="34" height="200" rx="4" fill="#6C4CF1"/>
<rect x="228" y="482" width="34" height="158" rx="4" fill="#6C4CF1"/>
<rect x="276" y="520" width="34" height="120" rx="4" fill="#6C4CF1"/>
<rect x="324" y="552" width="34" height="88" rx="4" fill="#6C4CF1"/>
<rect x="372" y="578" width="34" height="62" rx="4" fill="#6C4CF1"/>
<rect x="610" y="570" width="34" height="70" rx="4" fill="#6C4CF1"/>
<rect x="658" y="530" width="34" height="110" rx="4" fill="#6C4CF1"/>
<rect x="706" y="485" width="34" height="155" rx="4" fill="#6C4CF1"/>
<rect x="754" y="435" width="34" height="205" rx="4" fill="#6C4CF1"/>
<rect x="802" y="390" width="34" height="250" rx="4" fill="#6C4CF1"/>
<text x="512" y="768" text-anchor="middle" fill="#1A1030" font-family="Montserrat, 'Segoe UI', Arial, sans-serif" font-weight="800" font-size="78" letter-spacing="20">DATA AIGENCY</text>
</svg>
